<svg width="14" height="14" viewBox="0 0 14 14" fill="none" xmlns="http://www.w3.org/2000/svg">
<path d="M7 8.16276L1.40252 13.7602C1.24975 13.913 1.05773 13.9911 0.826448 13.9947C0.595183 13.9982 0.39963 13.9201 0.239789 13.7602C0.0799295 13.6004 0 13.4066 0 13.1788C0 12.9511 0.0799295 12.7573 0.239789 12.5975L5.83725 7L0.239789 1.40251C0.0870094 1.24975 0.00885432 1.05773 0.00532355 0.826448C0.00177439 0.595183 0.0799295 0.39963 0.239789 0.239789C0.39963 0.0799295 0.593418 0 0.821152 0C1.04889 0 1.24267 0.0799295 1.40252 0.239789L7 5.83724L12.5975 0.239789C12.7502 0.0870094 12.9423 0.00885432 13.1736 0.00532355C13.4048 0.00177439 13.6004 0.0799295 13.7602 0.239789C13.9201 0.39963 14 0.593417 14 0.821152C14 1.04889 13.9201 1.24267 13.7602 1.40251L8.16276 7L13.7602 12.5975C13.913 12.7502 13.9911 12.9423 13.9947 13.1736C13.9982 13.4048 13.9201 13.6004 13.7602 13.7602C13.6004 13.9201 13.4066 14 13.1788 14C12.9511 14 12.7573 13.9201 12.5975 13.7602L7 8.16276Z" fill="#282828"/>
</svg>
